<svg width="13" height="19" viewBox="0 0 13 19" fill="none" xmlns="http://www.w3.org/2000/svg">
<path fill-rule="evenodd" clip-rule="evenodd" d="M11.47 9.7979C11.3811 9.90622 11.1855 9.99648 11.0788 9.99648C10.8832 9.99648 10.7943 9.88816 10.6876 9.7979C10.492 9.59932 10.492 9.29236 10.6876 9.09378C11.3633 8.38966 11.7546 7.48696 11.7546 6.494C11.7546 5.501 11.47 4.5983 10.7765 3.89418C10.5809 3.69559 10.5809 3.38867 10.7765 3.19007C10.9722 2.99148 11.2567 2.99148 11.4523 3.19007C13.3195 4.99549 13.3195 8.01056 11.47 9.7979ZM10.0119 8.2994C9.92295 8.40772 9.72733 8.49798 9.62062 8.49798C9.5139 8.49798 9.42499 8.49798 9.33609 8.2994C9.14046 8.10082 9.14046 7.79386 9.33609 7.59528C9.92295 6.99948 9.92295 5.98846 9.33609 5.39268C9.14046 5.19409 9.14046 4.88716 9.33609 4.68857C9.53171 4.48997 9.81624 4.48997 10.0119 4.68857C10.9899 5.6996 10.9899 7.3967 10.0119 8.2994ZM8.26914 6.99948C8.00235 6.99948 7.78899 6.78284 7.78899 6.494C7.78899 6.22317 8.00235 5.98846 8.26914 5.98846C8.53586 5.98846 8.74929 6.20511 8.74929 6.494C8.74929 6.78284 8.53586 6.99948 8.26914 6.99948ZM3.69887 18.5C1.65382 18.5 0 16.8029 0 14.7086C0 13.499 0.586839 12.3977 1.45821 11.7116V2.79288C1.45821 1.49298 2.43627 0.5 3.69887 0.5C4.96144 0.5 5.93955 1.49298 5.93955 2.79288V11.6936C6.91759 12.3977 7.39774 13.499 7.39774 14.6906C7.39774 16.8029 5.74393 18.5 3.69887 18.5Z" fill="#F26524"/>
</svg>
