<svg width="13" height="13" viewBox="0 0 13 13" fill="none" xmlns="http://www.w3.org/2000/svg">
<path d="M4.625 0.875L3.375 2.125H1.5C0.811524 2.125 0.25 2.68652 0.25 3.375V10.875C0.25 11.5635 0.811524 12.125 1.5 12.125H11.5C12.1885 12.125 12.75 11.5635 12.75 10.875V3.375C12.75 2.68652 12.1885 2.125 11.5 2.125H9.625L8.375 0.875H4.625ZM6.5 4C8.25049 4 9.625 5.37451 9.625 7.125C9.625 8.87549 8.25049 10.25 6.5 10.25C4.74951 10.25 3.375 8.87549 3.375 7.125C3.375 5.37451 4.74951 4 6.5 4ZM6.5 4.9375C5.2915 4.9375 4.3125 5.9165 4.3125 7.125C4.3125 8.3335 5.2915 9.3125 6.5 9.3125C7.7085 9.3125 8.6875 8.3335 8.6875 7.125C8.6875 5.9165 7.7085 4.9375 6.5 4.9375Z" fill="#1A5685"/>
</svg>
