<svg width="14" height="21" viewBox="0 0 14 21" fill="none" xmlns="http://www.w3.org/2000/svg">
<path fill-rule="evenodd" clip-rule="evenodd" d="M6.836 0.5C7.34371 0.5 7.8515 0.8125 8.00779 1.39844C8.88021 4.3314 10.2203 6.24107 11.3864 7.903C12.6742 9.73829 13.75 11.2714 13.75 13.5469C13.75 17.414 10.664 20.5 6.875 20.5C3.04684 20.5 0 17.414 0 13.5469C0 11.2713 1.07594 9.72729 2.35822 7.88729C3.5192 6.22129 4.84929 4.31259 5.70314 1.39844C5.8985 0.8125 6.36729 0.5 6.836 0.5ZM4.375 13C4.375 14.7577 5.74229 16.125 7.5 16.125C7.8125 16.125 8.125 16.4375 8.125 16.75C8.125 17.1015 7.8125 17.375 7.5 17.375C5.07814 17.375 3.125 15.4219 3.125 13C3.125 12.6875 3.39841 12.375 3.75 12.375C4.0625 12.375 4.375 12.6875 4.375 13Z" fill="#EB5724"/>
</svg>
